<svg width="11" height="11" fill="none" xmlns="http://www.w3.org/2000/svg"><g clip-path="url(#clip0_260:5679)"><path d="M5.279 6.765c-.944-.775-1.573-1.732-1.904-2.277l-.247-.466c.086-.092.744-.797 1.03-1.18.358-.48-.162-.914-.162-.914S2.533.464 2.2.174c-.334-.29-.717-.13-.717-.13C.782.499.055.892.012 2.785.01 4.558 1.356 6.387 2.81 7.802 4.268 9.4 6.27 11.001 8.204 11c1.893-.043 2.287-.77 2.74-1.47 0 0 .161-.384-.129-.718-.29-.333-1.754-1.797-1.754-1.797s-.434-.52-.914-.16c-.358.267-1.001.862-1.156 1.007 0 0-1.076-.573-1.712-1.097z" fill="#fff"/></g><defs><clipPath id="clip0_260:5679"><path fill="#fff" d="M0 0h11v11H0z"/></clipPath></defs></svg>