<svg width="72" height="72" fill="none" xmlns="http://www.w3.org/2000/svg"><mask id="mask0_260:5635" style="mask-type:alpha" maskUnits="userSpaceOnUse" x="0" y="0" width="72" height="72"><circle cx="35.512" cy="35.512" r="35.012" transform="rotate(-90 35.512 35.512)" stroke="#757575"/></mask><g mask="url(#mask0_260:5635)"><path fill="#fff" d="M13.465 95.95l-24.697-64.926L65.365 1.887 90.06 66.813z"/></g><g clip-path="url(#clip0_260:5635)"><path d="M35.677 25.159l-6.875 6.875a.458.458 0 10.648.648l6.093-6.093v19.977a.458.458 0 10.917 0V26.59l6.092 6.093a.458.458 0 10.648-.648l-6.875-6.875a.458.458 0 00-.648 0z" fill="#fff"/></g><defs><clipPath id="clip0_260:5635"><path fill="#fff" transform="rotate(-90 36.012 11.012)" d="M0 0h22v22H0z"/></clipPath></defs></svg>