<svg width="16" height="16" fill="none" xmlns="http://www.w3.org/2000/svg"><g clip-path="url(#clip0_260:5961)"><path d="M9.762 8l5.982-5.982A.871.871 0 0016 1.399a.868.868 0 00-.256-.618L15.22.256a.868.868 0 00-.619-.255.868.868 0 00-.619.255L8 6.238 2.018.256a.867.867 0 00-.619-.255.867.867 0 00-.619.255L.256.781a.876.876 0 000 1.237L6.238 8 .256 13.983a.87.87 0 00-.255.619c0 .234.09.454.255.618l.524.524A.868.868 0 001.4 16c.234 0 .454-.09.619-.255L8 9.762l5.982 5.982a.868.868 0 00.619.256c.234 0 .454-.09.619-.255l.524-.525a.87.87 0 00.256-.618.87.87 0 00-.256-.62L9.762 8z" fill="#484848"/></g><defs><clipPath id="clip0_260:5961"><path fill="#fff" d="M0 0h16v16H0z"/></clipPath></defs></svg>