<svg width="36" height="36" fill="none" xmlns="http://www.w3.org/2000/svg"><g clip-path="url(#clip0_260:7393)" fill="#fff"><path d="M31.718 10.804h-1.24V.704a.703.703 0 00-1.164-.531l-1.862 1.62a25.988 25.988 0 01-17.07 6.375H6.958c-3.45 0-6.256 2.79-6.256 6.219 0 3.429 2.807 6.218 6.256 6.218h1.64v14.692c0 .388.316.703.704.703h4.033a2.525 2.525 0 002.522-2.522v-2.946h1.065a2.53 2.53 0 002.526-2.529 2.529 2.529 0 00-2.526-2.526h-1.065v-4.292a25.976 25.976 0 0111.595 5.795l1.862 1.62a.703.703 0 001.164-.53V17.969h1.24a3.585 3.585 0 003.58-3.585 3.584 3.584 0 00-3.58-3.58zm-29.61 3.583c0-2.654 2.176-4.813 4.85-4.813h1.64V19.2h-1.64c-2.674 0-4.85-2.159-4.85-4.812zm14.814 12.497a1.121 1.121 0 010 2.241h-1.065v-2.241h1.065zm-2.471 6.594c0 .615-.5 1.116-1.116 1.116h-3.33V20.605h.377c1.37 0 2.73.108 4.069.319v12.554zm14.621-6.952l-.697-.607a27.368 27.368 0 00-2.965-2.241V17.92a.703.703 0 00-1.406 0v4.895A27.392 27.392 0 0010.382 19.2h-.377V9.574h.377c4.796 0 9.48-1.247 13.622-3.617v5.607a.703.703 0 001.406 0V5.095a27.344 27.344 0 002.965-2.241l.697-.607v24.28zm2.646-9.963h-1.24V12.21h1.24a2.177 2.177 0 010 4.352z"/><path d="M25.356 14.487a.709.709 0 00-.686-.433.71.71 0 00-.635.498.709.709 0 00.254.768.71.71 0 00.79.033.71.71 0 00.277-.866z"/></g><defs><clipPath id="clip0_260:7393"><path fill="#fff" d="M0 0h36v36H0z"/></clipPath></defs></svg>