<svg width="36" height="36" fill="none" xmlns="http://www.w3.org/2000/svg"><g clip-path="url(#clip0_260:7348)" fill="#fff"><path d="M16.346 27.445a.703.703 0 10.995.994.703.703 0 00-.995-.994z"/><path d="M34.378 26.224l-5.338-4.54a.714.714 0 00-.078-.057 3.494 3.494 0 00-4.373.48l-2.91 2.91a.702.702 0 01-.767.153c-3.286-1.36-5.986-3.407-8.024-6.083-1.555-2.041-2.115-3.663-2.189-3.892a.697.697 0 00-.043-.145.7.7 0 01.153-.765l2.91-2.911a3.494 3.494 0 00.458-4.406L10.322 1.61a3.515 3.515 0 00-5.44-.581l-.583.583-.002.001-2.08 2.081C-.265 6.177-.671 9.905 1.043 14.479c1.468 3.918 4.406 8.205 8.273 12.073 3.96 3.959 8.363 6.951 12.4 8.426 3.996 1.46 8.246 1.64 11.254-1.368l1.963-1.962a3.516 3.516 0 00-.555-5.424zm-6.21-3.435l5.334 4.535c.024.021.05.04.078.058a2.11 2.11 0 01.358 3.271l-.145.146-9.097-6.81.887-.888a2.096 2.096 0 012.586-.312zM9.149 2.383a.699.699 0 00.022.033l3.853 5.356a2.096 2.096 0 01-.298 2.608l-.86.86-6.154-9.05.165-.166a2.11 2.11 0 013.271.36zm13.05 31.275c-3.848-1.407-8.07-4.283-11.887-8.1-3.729-3.729-6.553-7.839-7.952-11.572-1.05-2.803-1.754-6.69.852-9.296L4.699 3.2l6.154 9.051-1.038 1.038a2.101 2.101 0 00-.481 2.239c.222.91 1.243 2.801 2.273 4.194 1.516 2.05 4.268 4.885 8.768 6.746.79.327 1.692.148 2.298-.457l1.018-1.02 9.097 6.811-.812.812c-2.793 2.794-6.859 2.11-9.778 1.043z"/><path d="M15.027 25.766c-.742-.651-2.027-1.771-2.703-2.467-1.66-1.705-3.4-3.772-4.435-5.265a.703.703 0 10-1.155.801c1.305 1.883 3.222 4.047 4.582 5.444.714.735 2.01 1.865 2.784 2.544a.703.703 0 00.928-1.057z"/></g><defs><clipPath id="clip0_260:7348"><path fill="#fff" d="M0 0h36v36H0z"/></clipPath></defs></svg>