<svg width="36" height="36" fill="none" xmlns="http://www.w3.org/2000/svg"><path d="M18 0C8.059 0 0 8.059 0 18s8.059 18 18 18 18-8.059 18-18C35.989 8.064 27.936.011 18 0zm15.568 24.306l-5.12.883a26.83 26.83 0 00.942-6.589h5.395a16.69 16.69 0 01-1.217 5.706zM1.215 18.6H6.61c.04 2.227.356 4.44.942 6.59l-5.12-.884A16.69 16.69 0 011.216 18.6zm1.218-6.906l5.119-.883A26.862 26.862 0 006.61 17.4H1.215a16.69 16.69 0 011.218-5.706zM18.6 9.634c2.156.027 4.307.224 6.432.587l2.118.365c.65 2.215 1 4.506 1.04 6.814H18.6V9.634zm6.637-.596a42.529 42.529 0 00-6.637-.604v-7.2c3.44.33 6.428 3.48 8.121 8.063l-1.484-.259zM17.4 8.434c-2.224.027-4.443.23-6.636.604l-1.485.257C10.972 4.711 13.96 1.56 17.4 1.231v7.203zm-6.431 1.787a41.264 41.264 0 016.431-.587V17.4H7.81c.04-2.308.39-4.6 1.04-6.814l2.119-.365zM7.809 18.6H17.4v7.766a41.268 41.268 0 01-6.432-.587l-2.118-.365c-.65-2.215-1-4.506-1.04-6.814zm2.954 8.362c2.193.375 4.412.578 6.637.608v7.2c-3.44-.331-6.428-3.48-8.121-8.064l1.484.256zm7.837.608a42.667 42.667 0 006.636-.608l1.485-.257c-1.693 4.584-4.681 7.735-8.121 8.064v-7.2zm6.431-1.791a41.26 41.26 0 01-6.431.587V18.6h9.59c-.04 2.308-.39 4.6-1.04 6.814l-2.118.365zm4.36-8.379a26.856 26.856 0 00-.943-6.59l5.12.884a16.69 16.69 0 011.217 5.706H29.39zm3.57-7.028l-4.907-.847a16.545 16.545 0 00-4.774-7.47 16.88 16.88 0 019.68 8.317zM12.72 2.055a16.545 16.545 0 00-4.775 7.47l-4.906.847a16.88 16.88 0 019.68-8.317zM3.04 25.628l4.906.847a16.546 16.546 0 004.774 7.47 16.88 16.88 0 01-9.68-8.317zm20.24 8.317a16.545 16.545 0 004.773-7.47l4.907-.847a16.88 16.88 0 01-9.68 8.317z" fill="#fff"/></svg>