<svg width="36" height="36" fill="none" xmlns="http://www.w3.org/2000/svg"><path d="M18 0C11.329 0 5.9 5.427 5.9 12.098a12 12 0 002.348 7.163l9.166 13.607a.705.705 0 001.17 0l9.165-13.607a12.003 12.003 0 002.348-7.163C30.098 5.428 24.67 0 18 0zm8.604 18.44a.727.727 0 00-.026.037L18 31.212 9.423 18.479a10.602 10.602 0 01-2.11-6.381C7.31 6.205 12.105 1.41 17.999 1.41c5.893 0 10.687 4.795 10.687 10.688 0 2.303-.72 4.496-2.083 6.342z" fill="#fff"/><path d="M22.936 11.318a.705.705 0 00-.705.705A4.236 4.236 0 0118 16.255a4.236 4.236 0 01-4.231-4.232A4.236 4.236 0 0118 7.793a4.21 4.21 0 012.365.721.705.705 0 10.79-1.168A5.615 5.615 0 0018 6.382a5.648 5.648 0 00-5.642 5.641A5.648 5.648 0 0018 17.665c3.11 0 5.641-2.53 5.641-5.642a.705.705 0 00-.705-.705zM26.45 34.59H9.525a.705.705 0 100 1.41H26.45a.705.705 0 100-1.41z" fill="#fff"/><path d="M22.372 8.999h-.014a.705.705 0 100 1.41h.014a.705.705 0 100-1.41z" fill="#fff"/></svg>