<svg width="164" height="164" fill="none" xmlns="http://www.w3.org/2000/svg"><path d="M151.188 59.578c-4.61 0-8.805 2.503-11.06 6.347L91.258 52.41a12.767 12.767 0 003.555-8.846 3.203 3.203 0 00-6.407 0A6.414 6.414 0 0182 49.968a6.414 6.414 0 01-6.406-6.407A6.414 6.414 0 0182 37.157a3.203 3.203 0 003.203-3.203v-8.328h6.406a3.203 3.203 0 002.865-1.77l9.61-19.22A3.203 3.203 0 00101.219 0H62.781a3.202 3.202 0 00-2.865 4.636l9.61 19.218a3.203 3.203 0 002.865 1.771h6.406v5.53c-5.52 1.426-9.61 6.448-9.61 12.407 0 3.429 1.357 6.545 3.558 8.846L23.869 65.925c-2.259-3.848-6.45-6.347-11.056-6.347C5.747 59.578 0 65.326 0 72.391v88.406A3.203 3.203 0 003.203 164h64.383a3.203 3.203 0 100-6.406H6.406v-72.39h151.188v72.39h-61.18a3.203 3.203 0 100 6.406h64.383a3.203 3.203 0 003.203-3.203V72.391c0-7.065-5.748-12.813-12.812-12.813zM74.37 19.218L67.964 6.407h28.072L89.63 19.22H74.37zm-55.15 59.58H6.406V72.39a6.413 6.413 0 016.407-6.407c3.499 0 6.406 2.855 6.406 6.407v6.406zm119.156-6.406v6.406H25.625s-.008-6.607-.01-6.707L82 56.495l56.386 15.595c-.003.1-.011.2-.011.3zm19.219 6.406h-12.813V72.39c0-3.548 2.897-6.407 6.407-6.407a6.414 6.414 0 016.406 6.407v6.406z" fill="#414141"/><path d="M39.078 101.219v40.359a3.203 3.203 0 006.406 0v-40.359a3.203 3.203 0 00-6.406 0zm-19.859 0v40.359a3.203 3.203 0 106.406 0v-40.359a3.203 3.203 0 10-6.406 0zm125.562 40.359v-40.359a3.203 3.203 0 10-6.406 0v40.359a3.203 3.203 0 106.406 0zm-19.859 0v-40.359a3.203 3.203 0 10-6.406 0v40.359a3.203 3.203 0 106.406 0zm-19.86 0v-40.359a3.203 3.203 0 10-6.406 0v40.359a3.203 3.203 0 106.406 0zM82 98.016a3.203 3.203 0 00-3.203 3.203v40.359a3.203 3.203 0 106.406 0v-40.359A3.203 3.203 0 0082 98.016zm-23.062 3.203v40.359a3.203 3.203 0 106.406 0v-40.359a3.203 3.203 0 00-6.406 0zM82 164a3.203 3.203 0 100-6.406A3.203 3.203 0 0082 164z" fill="#414141"/></svg>