<svg width="13" height="13" fill="none" xmlns="http://www.w3.org/2000/svg"><g clip-path="url(#clip0_260:7361)" fill="#1FAEE9"><path d="M11.84 11.607c.292 0 .545-.096.76-.287L8.917 7.637l-.255.183c-.275.203-.5.362-.67.475-.173.114-.401.23-.686.348a2.09 2.09 0 01-.798.178h-.015a2.08 2.08 0 01-.798-.178 4.121 4.121 0 01-.685-.348 17.079 17.079 0 01-.672-.475 32.024 32.024 0 00-.254-.184L.4 11.32c.216.19.469.287.761.287H11.84zM.733 5.317A3.846 3.846 0 010 4.686v5.604l3.246-3.246C2.596 6.59 1.76 6.015.733 5.317zm11.541 0c-.988.669-1.827 1.245-2.52 1.728L13 10.29V4.686c-.208.232-.45.443-.726.631z"/><path d="M11.84 1.393H1.16c-.372 0-.658.125-.859.377-.2.251-.301.566-.301.943 0 .304.133.635.399.99a3.6 3.6 0 00.849.838c.164.116.66.46 1.487 1.034a481.386 481.386 0 011.9 1.324l.109.077.2.144a7.862 7.862 0 00.769.511c.147.087.287.153.417.196.13.044.252.066.363.066h.014c.111 0 .232-.022.363-.066.13-.043.27-.108.417-.196a7.734 7.734 0 00.77-.511 47.089 47.089 0 01.308-.221l.734-.51 2.66-1.848c.354-.247.649-.544.886-.892A1.92 1.92 0 0013 2.553c0-.319-.115-.592-.345-.82a1.122 1.122 0 00-.816-.34z"/></g><defs><clipPath id="clip0_260:7361"><path fill="#fff" d="M0 0h13v13H0z"/></clipPath></defs></svg>