<svg width="13" height="13" fill="none" xmlns="http://www.w3.org/2000/svg"><g clip-path="url(#clip0_260:7384)"><path d="M12.476 7.491a1.67 1.67 0 01-.302-.985V6.5A5.674 5.674 0 004.55 1.17c-.329.121-.69.144-1.027.05a2.778 2.778 0 00-.946-.097A2.783 2.783 0 00.004 3.74a2.76 2.76 0 00.52 1.769c.207.285.302.633.302.985V6.5a5.674 5.674 0 007.625 5.33c.329-.121.69-.145 1.027-.05.298.084.616.12.946.097a2.782 2.782 0 002.572-2.617 2.759 2.759 0 00-.52-1.769zM6.708 5.483c1.144.272 2.873.683 2.873 2.587 0 .938-.462 1.654-1.301 2.015-.599.258-1.276.293-1.86.293-1.795 0-2.928-1.395-2.975-1.454a.853.853 0 011.334-1.065c.003.003.68.782 1.64.812 1.157.037 1.42-.307 1.455-.6.042-.36-.277-.622-1.561-.928-1.088-.259-2.733-.65-2.733-2.404 0-.546.222-2.328 3.08-2.328 1.806 0 2.871 1.421 2.915 1.482a.853.853 0 01-1.37 1.016c-.021-.026-.63-.704-1.544-.791-.692-.066-1.374.184-1.374.552 0 .39.196.521 1.42.813z" fill="#1FAEE9"/></g><defs><clipPath id="clip0_260:7384"><path fill="#fff" d="M0 0h13v13H0z"/></clipPath></defs></svg>