<svg width="1580" height="807" fill="none" xmlns="http://www.w3.org/2000/svg"><path d="M1243.47 77.717l128.61 171.48H428.942V77.717h814.528z" fill="#1FAEE9"/><path d="M481.623 77.72l86.464-.002-346.381 460.586-55.168-41.818L481.623 77.72z" fill="#FE6400"/><path d="M471.323 729.339l86.239.001-346.153-462.993-55.169 41.817 315.083 421.175z" fill="#FE6400"/><path d="M.242 77.717h162.906V729.34H.242V77.717z" fill="#1FAEE9"/><path d="M320.644 77.716l161.321.003-359.354 479.039-104.593-79.28L320.644 77.716z" fill="#1FAEE9"/><path d="M320.039 729.34l161.313.006L122.006 249.2 17.413 328.48 320.04 729.34zm331.826-497.291h162.906V729.34H651.865V232.049zm325.811 0h171.484V729.34H977.676V232.049zm420.124 171.48l-77.17 102.888h-171.47V403.529h248.64z" fill="#1FAEE9"/><path d="M1234.9 77.717h77.16l233.15 300.118c9.99 12.856 14.99 19.284 14.07 26.366-.92 7.081-7.38 12.026-20.31 21.916l-26.63 20.366L1234.9 77.717z" fill="#FE6400"/><path d="M1226.33 729.336h83.39l240.8-304.855c8.35-10.561 12.52-15.842 12.4-21.971-.11-6.129-4.47-11.255-13.19-21.507l-31.89-37.492-291.51 385.825z" fill="#FE6400"/></svg>