<svg width="13" height="13" fill="none" xmlns="http://www.w3.org/2000/svg"><g clip-path="url(#clip0_260:5643)" fill="#fff"><path d="M11.838 11.607c.292 0 .545-.096.76-.287L8.915 7.637l-.255.183a16.68 16.68 0 01-.67.475c-.173.114-.401.23-.686.348a2.09 2.09 0 01-.798.178H6.49c-.247 0-.512-.059-.798-.178a4.12 4.12 0 01-.685-.348 17.078 17.078 0 01-.672-.475 31.841 31.841 0 00-.254-.184L.398 11.32c.216.19.469.287.761.287h10.679zM.733 5.318A3.846 3.846 0 010 4.687v5.603l3.246-3.246A266.43 266.43 0 00.733 5.318zm11.541 0c-.989.669-1.829 1.244-2.52 1.727l3.245 3.245V4.687c-.208.232-.45.442-.726.63z"/><path d="M11.84 1.393H1.16c-.372 0-.658.125-.859.377-.2.251-.301.566-.301.943 0 .304.133.635.399.99a3.6 3.6 0 00.849.838c.164.116.66.46 1.487 1.034a481.386 481.386 0 011.9 1.324l.109.077.2.144a7.862 7.862 0 00.769.511c.147.087.287.153.417.196.13.044.252.066.363.066h.014c.111 0 .232-.022.363-.066.13-.043.27-.108.417-.196a7.734 7.734 0 00.77-.511 47.089 47.089 0 01.308-.221l.734-.51 2.66-1.848c.354-.247.649-.544.886-.892A1.92 1.92 0 0013 2.553c0-.319-.115-.592-.345-.82a1.122 1.122 0 00-.816-.34z"/></g><defs><clipPath id="clip0_260:5643"><path fill="#fff" d="M0 0h13v13H0z"/></clipPath></defs></svg>