<svg width="83" height="83" fill="none" xmlns="http://www.w3.org/2000/svg"><g clip-path="url(#clip0_260:6507)" fill="#EAEAEA"><path d="M33.334 37.436a19.334 19.334 0 00-13.03-5.805c-.023-.309-.04-.734-.04-1.317 0-2.384 1.813-9.672 2.957-13.705l1.17-4.127H10.193l-.952 1.533C8.864 14.623 0 29.155 0 51.065 0 61.79 8.727 70.517 19.453 70.517c10.727 0 19.453-8.727 19.453-19.453 0-5.13-1.979-9.97-5.572-13.629zm-13.88 26.597c-7.152 0-12.97-5.818-12.97-12.968 0-16.101 5.323-28.019 7.427-32.098h1.966c-.932 3.66-2.098 8.76-2.098 11.348 0 2.052.153 3.702.897 5.078.663 1.227 2.05 2.687 4.893 2.703l.141.003c7.01.136 12.712 5.952 12.712 12.966 0 7.15-5.818 12.968-12.969 12.968zm58.199-26.597a19.334 19.334 0 00-13.03-5.805c-.023-.309-.04-.734-.04-1.317 0-2.384 1.814-9.672 2.957-13.705l1.17-4.127H54.512l-.951 1.533c-.377.608-9.242 15.14-9.242 37.05 0 10.726 8.727 19.453 19.453 19.453 10.727 0 19.454-8.727 19.454-19.453 0-5.13-1.98-9.97-5.573-13.629zm-13.88 26.597c-7.152 0-12.97-5.818-12.97-12.968 0-16.101 5.324-28.019 7.427-32.098h1.967c-.932 3.66-2.098 8.76-2.098 11.348 0 2.052.152 3.702.896 5.078.663 1.227 2.05 2.687 4.893 2.703l.142.003c7.009.136 12.711 5.952 12.711 12.966 0 7.15-5.818 12.968-12.968 12.968z"/></g><defs><clipPath id="clip0_260:6507"><path fill="#fff" d="M0 0h83v83H0z"/></clipPath></defs></svg>