<svg width="14" height="13" fill="none" xmlns="http://www.w3.org/2000/svg"><g clip-path="url(#clip0)" fill="#fff"><path d="M13.998 13H14V8.231c0-2.333-.54-4.13-3.477-4.13-1.412 0-2.359.72-2.746 1.402h-.04V4.32H4.952V13h2.9V8.701c0-1.132.23-2.226 1.74-2.226 1.486 0 1.508 1.291 1.508 2.298V13h2.897zM.23 4.32h2.903V13H.23V4.32zM1.681 0C.753 0 0 .7 0 1.561c0 .862.753 1.576 1.681 1.576s1.681-.714 1.681-1.576C3.362.7 2.61 0 1.682 0z"/></g><defs><clipPath id="clip0"><path fill="#fff" d="M0 0h14v13H0z"/></clipPath></defs></svg>