<svg width="13" height="13" fill="none" xmlns="http://www.w3.org/2000/svg"><g clip-path="url(#clip0)" fill="#fff"><path d="M12.988 3.822c-.03-.69-.142-1.166-.302-1.577a3.173 3.173 0 00-.752-1.153 3.2 3.2 0 00-1.15-.75c-.414-.16-.887-.27-1.577-.301C8.51.008 8.29 0 6.525 0s-1.986.008-2.68.038C3.155.068 2.68.18 2.268.34a3.172 3.172 0 00-1.153.752 3.2 3.2 0 00-.749 1.15c-.16.414-.271.887-.302 1.577-.033.696-.04.917-.04 2.682s.007 1.986.038 2.68c.03.69.142 1.165.302 1.577.165.436.421.827.751 1.153.326.33.72.586 1.15.749.415.16.887.271 1.578.302.693.03.914.038 2.68.038 1.764 0 1.985-.008 2.678-.038.691-.03 1.166-.142 1.577-.302a3.325 3.325 0 001.903-1.902c.16-.414.271-.887.302-1.577.03-.694.038-.915.038-2.68 0-1.765-.003-1.986-.033-2.679zm-1.17 5.308c-.029.635-.135.977-.224 1.206a2.157 2.157 0 01-1.235 1.234c-.228.09-.573.196-1.206.224-.686.03-.891.038-2.626.038-1.734 0-1.942-.008-2.626-.038-.635-.028-.977-.135-1.206-.224a2.002 2.002 0 01-.747-.485 2.021 2.021 0 01-.485-.746c-.089-.229-.195-.574-.223-1.207-.03-.685-.038-.891-.038-2.626 0-1.734.007-1.942.038-2.626.028-.634.134-.977.223-1.206.105-.282.27-.538.488-.747.21-.215.465-.38.747-.485.228-.088.574-.195 1.206-.223.686-.03.891-.038 2.626-.038 1.737 0 1.943.008 2.626.038.635.028.977.135 1.206.223.282.105.538.27.747.485.216.211.38.465.485.747.089.229.195.574.223 1.206.03.686.038.892.038 2.626 0 1.735-.007 1.938-.038 2.624z"/><path d="M6.523 3.162a3.34 3.34 0 10.002 6.68 3.34 3.34 0 00-.002-6.68zm0 5.505a2.167 2.167 0 110-4.333 2.167 2.167 0 010 4.333zm4.251-5.637a.78.78 0 11-1.56 0 .78.78 0 011.56 0z"/></g><defs><clipPath id="clip0"><path fill="#fff" d="M0 0h13v13H0z"/></clipPath></defs></svg>