<svg width="50" height="30" fill="none" xmlns="http://www.w3.org/2000/svg"><path d="M49.712 27.793l-7.373-5.53a1.86 1.86 0 00-2.142-.07l-5.558-4.17v-1.225h4.125a2.248 2.248 0 002.224-1.884l1.99-11.94h.16a.719.719 0 100-1.438h-8.45c-.587 0-1.135.17-1.6.46A2.258 2.258 0 0030.848 0H6.009a3.766 3.766 0 00-2.68 1.11L1.156 3.283a.718.718 0 000 1.016L3.46 6.603a.716.716 0 001.016 0L6.57 4.509h9.736v1.635h-6.194c-.82 0-1.486.667-1.486 1.487v7.73h-.05c-.82 0-1.487.666-1.487 1.486v5.403a3.787 3.787 0 00-1.536 3.045c0 2.09 1.701 3.79 3.791 3.79a3.796 3.796 0 003.722-3.071h12.958a5.333 5.333 0 004.825 3.072c2.558 0 4.7-1.814 5.21-4.222l3.287 1.643v.708c0 1.032.84 1.87 1.871 1.87h8.064a.719.719 0 00.431-1.292zm-9.744-15.505h-3.743a.05.05 0 01-.05-.05V6.046h4.834l-1.04 6.243zm-6.865-7.73c0-.874.712-1.585 1.586-1.585h6.832l-.273 1.635h-5.791a.719.719 0 00-.719.719v6.912c0 .82.667 1.486 1.487 1.486h3.504l-.159.952a.815.815 0 01-.806.683h-5.66V4.56zM6.272 3.073a.718.718 0 00-.508.21L3.968 5.08 2.68 3.79l1.664-1.664a2.338 2.338 0 011.665-.69h10.297v1.635H6.272zM9.344 27.65a2.356 2.356 0 01-2.353-2.354 2.356 2.356 0 012.353-2.353 2.356 2.356 0 012.354 2.353 2.356 2.356 0 01-2.354 2.354zm16.24-3.072H13.067a3.797 3.797 0 00-4.54-2.983v-4.747a.05.05 0 01.05-.05h2.304a.719.719 0 000-1.437h-.817V7.63a.05.05 0 01.05-.049h17.664a.719.719 0 100-1.437H17.743V1.437h13.106c.45 0 .817.367.817.818v3.889h-.818a.719.719 0 100 1.437h.818v7.78H13.952a.719.719 0 000 1.437h19.25v2.184a5.294 5.294 0 00-2.353-.55 5.333 5.333 0 00-5.264 6.145zm5.265 3.072a3.894 3.894 0 01-3.89-3.89 3.894 3.894 0 013.89-3.89 3.894 3.894 0 013.89 3.89 3.894 3.894 0 01-3.89 3.89zm8.497-3.89v1.142l-3.191-1.596a5.311 5.311 0 00-1.516-3.283v-.202l4.746 3.56c-.025.123-.038.25-.038.38zm1.871 3.89a.434.434 0 01-.433-.434V23.76c0-.241.167-.351.24-.387a.418.418 0 01.454.041l5.648 4.236h-5.909z" fill="#fff"/><path d="M32.384 23.04a.719.719 0 00-.718.72.818.818 0 01-1.635 0c0-.292.157-.563.41-.71a.719.719 0 00-.72-1.243 2.262 2.262 0 00-1.127 1.952 2.257 2.257 0 002.254 2.255 2.257 2.257 0 002.255-2.255.719.719 0 00-.719-.718zM9.351 24.577h-.007a.715.715 0 00-.715.719.72.72 0 00.722.718.719.719 0 100-1.437zm13.819-3.072h-9.217a.719.719 0 000 1.437h9.216a.719.719 0 000-1.437zm-6.146-9.217h-4.608a.719.719 0 000 1.437h4.608a.719.719 0 000-1.437zm0-3.072h-4.608a.719.719 0 000 1.437h4.608a.719.719 0 000-1.437z" fill="#fff"/></svg>