<svg width="61" height="61" fill="none" xmlns="http://www.w3.org/2000/svg"><path d="M21.618 20.728l-.239-.032-.213.106-10.93 5.465-.433.217v17.39l.473.204 5.323 2.28 5.796 2.485 35.247-4.005V25.504l-35.024-4.776zm-7.131 23.456l-3.123-1.338V27.449l3.123-1.561v18.296zm6.245 2.676l-4.684-2.007V25.107l4.684-2.342V46.86zm34.349-3.416L22.293 47.17V22.396l32.788 4.471v16.577z" fill="#fff"/><path d="M12.927 31.65a.78.78 0 00-.78.781v5.465a.78.78 0 001.56 0V32.43a.78.78 0 00-.78-.78zm5.463 0a.78.78 0 00-.78.781v6.245a.78.78 0 001.56 0v-6.245a.78.78 0 00-.78-.78zm34.436-3.898L24.722 24.63a.78.78 0 00-.867.776v18.736a.78.78 0 00.781.78.637.637 0 00.065 0l28.103-2.342a.78.78 0 00.716-.78V28.528a.78.78 0 00-.694-.776zM28.539 43.033l-3.122.26V26.278l3.122.347v16.408zm4.684-.39l-3.122.26V26.799l3.122.346v15.498zm4.684-.39l-3.122.26V27.318l3.122.347v14.586zm4.684-.391l-3.122.26V27.836l3.122.347v13.679zm4.684-.39l-3.122.26V28.357l3.122.347v12.768zm4.684-.39l-3.123.26V28.88l3.123.347V41.08z" fill="#fff"/></svg>