<svg width="40" height="40" fill="none" xmlns="http://www.w3.org/2000/svg"><path d="M7.402 23.14a2.344 2.344 0 001.192 4.36 2.347 2.347 0 002.21-1.563h6.071a2.346 2.346 0 012.344 2.344 2.346 2.346 0 01-2.344 2.344H7.5a3.91 3.91 0 00-3.906 3.906A3.91 3.91 0 007.5 38.438h7.813a.781.781 0 000-1.563H7.5a2.346 2.346 0 01-2.344-2.344A2.346 2.346 0 017.5 32.188h9.375a3.91 3.91 0 003.906-3.907 3.91 3.91 0 00-3.906-3.906h-6.072a2.355 2.355 0 00-1.017-1.236l5.967-9.79a8.557 8.557 0 001.434-4.755C17.188 3.855 13.332 0 8.595 0 3.855 0 0 3.855 0 8.594c0 1.7.496 3.344 1.435 4.755l5.967 9.79zm1.192 2.797a.782.782 0 010-1.562.782.782 0 010 1.563zm0-24.375a7.04 7.04 0 017.031 7.032 6.998 6.998 0 01-1.198 3.928l-5.833 9.57-5.85-9.597a6.998 6.998 0 01-1.182-3.901 7.04 7.04 0 017.032-7.031z" fill="#fff"/><path d="M8.594 12.5A3.91 3.91 0 0012.5 8.594a3.91 3.91 0 00-3.906-3.906 3.91 3.91 0 00-3.906 3.906A3.91 3.91 0 008.594 12.5zm0-6.25a2.346 2.346 0 012.344 2.344 2.346 2.346 0 01-2.344 2.344A2.346 2.346 0 016.25 8.594 2.346 2.346 0 018.594 6.25zm22.812 6.719c-4.738 0-8.593 3.855-8.593 8.594 0 1.703.497 3.35 1.439 4.762l5.945 9.325a2.35 2.35 0 00-1 1.225h-6.853a.781.781 0 100 1.563h6.853A2.347 2.347 0 0031.407 40a2.345 2.345 0 001.21-4.35l5.944-9.325A8.556 8.556 0 0040 21.563c0-4.74-3.855-8.594-8.594-8.594zm0 25.468a.782.782 0 010-1.562.782.782 0 010 1.563zm5.85-12.973l-5.85 9.176-5.85-9.176a6.999 6.999 0 01-1.181-3.901 7.04 7.04 0 017.031-7.032 7.04 7.04 0 017.032 7.031 6.999 6.999 0 01-1.181 3.902z" fill="#fff"/><path d="M31.406 17.656a3.91 3.91 0 00-3.906 3.907 3.91 3.91 0 003.906 3.906 3.91 3.91 0 003.907-3.907 3.91 3.91 0 00-3.907-3.906zm0 6.25a2.346 2.346 0 01-2.343-2.343 2.346 2.346 0 012.343-2.344 2.346 2.346 0 012.344 2.343 2.346 2.346 0 01-2.344 2.344zM18.828 38.438a.781.781 0 100-1.563.781.781 0 000 1.563z" fill="#fff"/></svg>