<svg width="40" height="40" fill="none" xmlns="http://www.w3.org/2000/svg"><g clip-path="url(#clip0_260:6206)" fill="#fff"><path d="M39.837 17.06l-6.695-8.698A.784.784 0 0032.1 8.18l-4.323 2.75H22.14a.779.779 0 00-.216.035l-4.371 1.259-4.536-1.241L8.61 8.179a.784.784 0 00-1.03.17L.173 17.52a.784.784 0 00.099 1.087l3.881 3.34 3.482 4.692a2.775 2.775 0 00.061 3.856 2.76 2.76 0 001.681.796 2.753 2.753 0 00.78 2.384c.524.524 1.22.812 1.96.812h.03l-.002.056c0 .74.289 1.436.812 1.96a2.755 2.755 0 002.393.778 2.762 2.762 0 002.757 2.498c.71 0 1.42-.27 1.96-.81l.424-.425.178.144a2.76 2.76 0 001.927.779c.71 0 1.42-.27 1.96-.811a2.76 2.76 0 00.81-2.004 2.767 2.767 0 002.814-2.812 2.757 2.757 0 002.003-.811 2.76 2.76 0 00.81-2.004 2.765 2.765 0 002.004-.81 2.776 2.776 0 00.364-3.47l2.543-5.324 3.822-3.29a.784.784 0 00.11-1.073zM8.36 9.878l3.17 2.015-6.894 8.398-2.763-2.377L8.36 9.879zm.447 17.806l.957-.956a1.2 1.2 0 01.744-.347l.02-.001a1.196 1.196 0 01.961.373c.443.468.42 1.233-.053 1.705l-.927.928a1.205 1.205 0 01-1.701 0 1.205 1.205 0 010-1.702zm2.461 4.882a1.194 1.194 0 01-.352-.85c0-.322.125-.624.352-.851l1.855-1.855a1.216 1.216 0 011.367-.236 1.2 1.2 0 01.663 1.242 1.27 1.27 0 01-.358.725l-1.825 1.825c-.228.227-.53.352-.851.352-.321 0-.623-.125-.85-.352zm2.8 2.827a1.194 1.194 0 01-.352-.85c0-.322.125-.624.352-.851l1.855-1.855c.38-.38.99-.461 1.454-.19.425.247.647.732.575 1.216a1.27 1.27 0 01-.357.705l-1.825 1.825c-.227.228-.53.353-.85.353-.322 0-.624-.125-.852-.353zm3.19 2.466a1.205 1.205 0 010-1.701l.957-.957a1.262 1.262 0 01.092-.083 1.2 1.2 0 01.65-.264l.04-.002c.029-.002.056-.004.085-.003a1.196 1.196 0 01.936.468c.36.471.312 1.172-.136 1.62l-.922.922c-.47.47-1.233.47-1.702 0zm14.632-8.753c-.47.47-1.232.469-1.702 0a.75.75 0 00-.053-.048l-5.043-5.097a.784.784 0 00-1.115 1.104l5.098 5.151.001.002a1.205 1.205 0 01-.85 2.054c-.322 0-.624-.125-.851-.353l-3.41-3.445a.784.784 0 10-1.115 1.103l3.358 3.393a.756.756 0 00.055.062 1.204 1.204 0 010 1.701 1.205 1.205 0 01-1.702 0l-1.862-1.88a.784.784 0 10-1.115 1.102l1.81 1.828a.696.696 0 00.055.062 1.204 1.204 0 01-1.701 1.702c-.054-.054-.118-.096-.178-.142-.052-.04-.065-.066-.04-.129.026-.063.065-.12.091-.184a2.829 2.829 0 00.176-1.424 2.76 2.76 0 00-1.171-1.908 2.753 2.753 0 00-1.167-.452c.202-.891-.04-1.858-.672-2.524a2.751 2.751 0 00-2.058-.867 2.77 2.77 0 00-.742-1.96 2.752 2.752 0 00-1.975-.868 2.795 2.795 0 00-.67.071 2.75 2.75 0 00-2.69-2.354 2.779 2.779 0 00-1.893.713l-3.032-4.085 7.254-8.837 2.311.632-3.019 5.328a2.753 2.753 0 00-.26 2.105 2.753 2.753 0 001.428 1.738l.01.005a2.754 2.754 0 001.974.19 2.754 2.754 0 001.672-1.305l1.962-3.462 3.503.248 9.328 9.328c.469.47.469 1.233 0 1.702zm.325-3.595l-8.751-8.751a.785.785 0 00-.499-.228l-4.29-.304a.797.797 0 00-.737.396l-2.206 3.893c-.158.28-.416.48-.726.566-.31.086-.634.045-.914-.113a1.196 1.196 0 01-.566-.726 1.194 1.194 0 01.112-.914l2.945-5.197 1.193-.343.024-.008 4.453-1.286h5.381l6.718 8.54-2.137 4.475zm3.164-5.707l-6.212-7.901 3.17-2.016 5.805 7.54-2.763 2.377z"/><path d="M24.233 9.456a.783.783 0 00.555-.23l5.358-5.358a.784.784 0 10-1.11-1.109L23.68 8.117a.784.784 0 00.555 1.339zm-9.02-.23a.782.782 0 001.109 0 .784.784 0 000-1.11L10.964 2.76a.784.784 0 10-1.11 1.11l5.359 5.357zm4.787.23a.784.784 0 00.783-.785V4.237a.784.784 0 00-1.568 0v4.434c0 .433.351.785.784.785zm-.725-8.061c.125.301.435.5.763.482a.792.792 0 00.707-.543.79.79 0 00-.269-.862.793.793 0 00-.912-.03.79.79 0 00-.289.953z"/></g><defs><clipPath id="clip0_260:6206"><path fill="#fff" d="M0 0h40v40H0z"/></clipPath></defs></svg>