<svg width="14" height="14" fill="none" xmlns="http://www.w3.org/2000/svg"><path d="M9.403 13.013a.086.086 0 01-.086.086H1.104a.086.086 0 01-.086-.086V.987c0-.048.038-.086.086-.086h8.213c.048 0 .086.038.086.086v.838l.9-.869A.988.988 0 009.317 0H1.104a.988.988 0 00-.987.987v12.026c0 .544.443.987.987.987h8.213a.988.988 0 00.987-.987V8.78l-.9.9v3.333z" fill="#fff"/><path d="M1.691 10.561c0 .249.202.45.45.45h1.576a1.343 1.343 0 01-.193-.9H2.142a.45.45 0 00-.45.45zM4.009 7.85H2.142a.45.45 0 000 .901h1.672l.195-.9zm1.629-2.26H2.142a.45.45 0 000 .9h2.596l.9-.9zm2.261-2.26H2.142a.45.45 0 000 .9h4.856l.9-.9zm5.452-1.487a1.874 1.874 0 00-2.673-.02L5.1 7.401a.453.453 0 00-.122.223L4.42 10.2a.45.45 0 00.536.536l2.575-.558a.458.458 0 00.223-.122l5.578-5.577c.731-.732.73-1.903.019-2.635zM5.449 9.707l.235-1.085.85.85-1.085.235zm7.246-5.866L7.435 9.1l-1.38-1.38 5.26-5.26a.976.976 0 111.38 1.38z" fill="#fff"/></svg>