<svg width="25" height="25" fill="none" xmlns="http://www.w3.org/2000/svg"><path d="M14.15 9.775h-2.407V7.368a.994.994 0 00-.996-.996.994.994 0 00-.996.996v2.407H7.344a.994.994 0 00-.996.996c0 .552.444.997.996.997H9.75v2.407c0 .552.444.996.996.996a.994.994 0 00.996-.996v-2.407h2.407a.997.997 0 000-1.992z" fill="#fff"/><path d="M10.752 18.98a8.208 8.208 0 110-16.417 8.207 8.207 0 018.208 8.208 8.21 8.21 0 01-8.208 8.209zm13.418 3.808l-5.532-5.532a10.178 10.178 0 002.324-6.485c0-5.64-4.57-10.214-10.215-10.214C5.103.557.537 5.132.537 10.77c0 5.64 4.57 10.215 10.215 10.215 2.46 0 4.717-.869 6.48-2.319l5.532 5.532c.254.259 1.03.386 1.41 0a1 1 0 00-.004-1.41z" fill="#fff"/></svg>