<svg width="18" height="18" viewBox="0 0 18 18" fill="none" xmlns="http://www.w3.org/2000/svg">
<g clip-path="url(#clip0_260:7700)">
<path d="M0.109863 8.73487L5.73486 3.10987C5.88136 2.96338 6.11866 2.96338 6.26513 3.10987C6.41162 3.25637 6.41162 3.49367 6.26513 3.64013L1.28025 8.62501H17.625C17.8323 8.62501 18 8.79274 18 9.00002C18 9.2073 17.8323 9.37503 17.625 9.37503H1.28025L6.26513 14.3599C6.41162 14.5064 6.41162 14.7437 6.26513 14.8901C6.19189 14.9634 6.09592 15 5.99998 15C5.90403 15 5.80809 14.9634 5.73483 14.8901L0.109827 9.26513C-0.0366325 9.11867 -0.0366325 8.88137 0.109863 8.73487Z" fill="#484848"/>
</g>
<defs>
<clipPath id="clip0_260:7700">
<rect width="18" height="18" fill="white" transform="matrix(-1 0 0 1 18 0)"/>
</clipPath>
</defs>
</svg>
