<svg width="22" height="22" viewBox="0 0 22 22" fill="none" xmlns="http://www.w3.org/2000/svg">

        <path d="M21.8657 10.6758L14.9907 3.80079C14.8117 3.62174 14.5216 3.62174 14.3426 3.80079C14.1636 3.97984 14.1636 4.26988 14.3426 4.44889L20.4353 10.5415H0.458348C0.205004 10.5415 0 10.7465 0 10.9999C0 11.2532 0.205004 11.4582 0.458348 11.4582H20.4353L14.3426 17.5508C14.1636 17.7298 14.1636 18.0199 14.3426 18.1989C14.4321 18.2884 14.5494 18.3332 14.6667 18.3332C14.784 18.3332 14.9012 18.2884 14.9908 18.1989L21.8658 11.3239C22.0448 11.1449 22.0448 10.8548 21.8657 10.6758Z"
              fill="white"/>


</svg>
