<svg width="11" height="11" viewBox="0 0 11 11" fill="none" xmlns="http://www.w3.org/2000/svg">
<g clip-path="url(#clip0_260:5679)">
<path d="M5.27865 6.7652C4.33542 5.98961 3.70562 5.03255 3.37451 4.48799L3.12752 4.02237C3.21388 3.92971 3.87244 3.22452 4.15783 2.8419C4.51647 2.36144 3.99649 1.92752 3.99649 1.92752C3.99649 1.92752 2.53338 0.464206 2.19993 0.173941C1.86649 -0.116731 1.48265 0.0447081 1.48265 0.0447081C0.781832 0.49753 0.0553057 0.891222 0.0117202 2.7846C0.0100947 4.55728 1.35576 6.38564 2.81094 7.8011C4.26847 9.39964 6.26964 11.0018 8.20437 11C10.0975 10.9568 10.4911 10.2304 10.944 9.52958C10.944 9.52958 11.1055 9.14605 10.8151 8.8123C10.5246 8.47865 9.06104 7.01524 9.06104 7.01524C9.06104 7.01524 8.62742 6.49516 8.14686 6.8541C7.78873 7.12181 7.14562 7.71728 6.99068 7.86165C6.99098 7.86216 5.91516 7.28864 5.27865 6.7652Z" fill="white"/>
</g>
<defs>
<clipPath id="clip0_260:5679">
<rect width="11" height="11" fill="white"/>
</clipPath>
</defs>
</svg>
