<svg width="72" height="72" viewBox="0 0 72 72" fill="none" xmlns="http://www.w3.org/2000/svg">
    <mask id="mask0_260:5635" style="mask-type:alpha" maskUnits="userSpaceOnUse" x="0" y="0" width="72" height="72">
        <circle cx="35.5123" cy="35.5121" r="35.0123" transform="rotate(-90 35.5123 35.5121)" stroke="#757575"/>
    </mask>
    <g mask="url(#mask0_260:5635)">
        <rect x="13.4648" y="95.9492" width="69.4636" height="81.9514" transform="rotate(-110.826 13.4648 95.9492)"
              fill="white"/>
    </g>
    <g clip-path="url(#clip0_260:5635)">
        <path d="M35.6773 25.1587L28.8023 32.0337C28.6232 32.2127 28.6232 32.5028 28.8023 32.6818C28.9813 32.8608 29.2713 32.8608 29.4504 32.6818L35.543 26.5892L35.543 46.5661C35.543 46.8194 35.748 47.0244 36.0013 47.0244C36.2547 47.0244 36.4597 46.8194 36.4597 46.5661L36.4597 26.5892L42.5523 32.6818C42.7313 32.8608 43.0213 32.8608 43.2004 32.6818C43.2899 32.5923 43.3346 32.475 43.3346 32.3577C43.3346 32.2405 43.2899 32.1232 43.2004 32.0336L36.3254 25.1586C36.1463 24.9796 35.8563 24.9796 35.6773 25.1587Z"
              fill="white"/>
    </g>
    <defs>
        <clipPath id="clip0_260:5635">
            <rect width="22" height="22" fill="white" transform="translate(25 47.0244) rotate(-90)"/>
        </clipPath>
    </defs>
</svg>
