<svg width="36" height="36" viewBox="0 0 36 36" fill="none" xmlns="http://www.w3.org/2000/svg">
<path d="M18 0C8.05898 0 0 8.05898 0 18C0 27.941 8.05898 36 18 36C27.941 36 36 27.941 36 18C35.9889 8.06367 27.9363 0.0111329 18 0ZM33.5675 24.3059L28.4484 25.1892C29.0344 23.0402 29.3508 20.8269 29.3903 18.6H34.7851C34.7174 20.5588 34.3052 22.4903 33.5675 24.3059ZM1.21494 18.6H6.60967C6.64922 20.8269 6.96563 23.0402 7.55156 25.1892L2.43252 24.3059C1.69482 22.4903 1.28262 20.5588 1.21494 18.6ZM2.43252 11.6941L7.55156 10.8108C6.96563 12.9598 6.64922 15.1731 6.60967 17.4H1.21494C1.28262 15.4412 1.69482 13.5097 2.43252 11.6941ZM18.6 9.63369C20.756 9.66123 22.9066 9.85752 25.0321 10.2211L27.15 10.5864C27.8007 12.8007 28.1508 15.0923 28.1909 17.4H18.6V9.63369ZM25.2366 9.03838C23.0438 8.66367 20.8245 8.46123 18.6 8.43369V1.23369C22.0397 1.56416 25.0277 4.71357 26.7211 9.29707L25.2366 9.03838ZM17.4 8.43369C15.1755 8.46123 12.9568 8.66367 10.764 9.03838L9.27891 9.29531C10.9723 4.71064 13.9603 1.56006 17.4 1.23105V8.43369ZM10.9685 10.2211C13.0937 9.85752 15.244 9.66123 17.4 9.63369V17.4H7.80908C7.84922 15.0923 8.19932 12.8007 8.85 10.5864L10.9685 10.2211ZM7.80908 18.6H17.4V26.3663C15.244 26.3388 13.0934 26.1425 10.9679 25.7789L8.85 25.4136C8.19932 23.1993 7.84922 20.9077 7.80908 18.6ZM10.7634 26.9616C12.9563 27.3369 15.1752 27.5402 17.4 27.5695V34.7695C13.9603 34.4388 10.9723 31.2894 9.27891 26.7059L10.7634 26.9616ZM18.6 27.5695C20.8245 27.5402 23.0432 27.3369 25.236 26.9616L26.7211 26.7047C25.0277 31.2894 22.0397 34.4399 18.6 34.7689V27.5695ZM25.0315 25.7789C22.9063 26.1425 20.756 26.3388 18.6 26.3663V18.6H28.1909C28.1508 20.9077 27.8007 23.1993 27.15 25.4136L25.0315 25.7789ZM29.3903 17.4C29.3508 15.1731 29.0344 12.9598 28.4484 10.8108L33.5675 11.6941C34.3052 13.5097 34.7174 15.4412 34.7851 17.4H29.3903ZM32.9604 10.3717L28.0535 9.525C27.1714 6.64717 25.5211 4.06436 23.2799 2.05488C27.4708 3.45352 30.9463 6.43916 32.9604 10.3717ZM12.7201 2.05488C10.4789 4.06436 8.82861 6.64717 7.94648 9.525L3.03955 10.3717C5.05371 6.43916 8.5292 3.45352 12.7201 2.05488ZM3.03955 25.6283L7.94648 26.475C8.82861 29.3528 10.4789 31.9356 12.7201 33.9451C8.5292 32.5465 5.05371 29.5608 3.03955 25.6283ZM23.2799 33.9451C25.5211 31.9356 27.1714 29.3528 28.0535 26.475L32.9604 25.6283C30.9463 29.5608 27.4708 32.5465 23.2799 33.9451Z" fill="white"/>
</svg>
