<svg width="36" height="36" viewBox="0 0 36 36" fill="none" xmlns="http://www.w3.org/2000/svg">
<g clip-path="url(#clip0_260:7348)">
<path d="M16.3464 27.4445C16.072 27.7186 16.072 28.1638 16.3464 28.4385C16.6213 28.7129 17.0663 28.7129 17.3404 28.4385C17.6153 28.1638 17.6153 27.7186 17.3404 27.4445C17.0663 27.1695 16.6213 27.1695 16.3464 27.4445Z" fill="white"/>
<path d="M34.378 26.2235L29.0397 21.6843C29.015 21.6634 28.9889 21.6442 28.9617 21.6269C27.5612 20.7353 25.763 20.9328 24.5889 22.1067L21.6783 25.017C21.4767 25.2188 21.176 25.2784 20.9123 25.1697C17.6257 23.8101 14.9258 21.7634 12.8876 19.0868C11.3333 17.0458 10.773 15.424 10.6991 15.1955C10.6903 15.1466 10.6763 15.098 10.6565 15.0505C10.5475 14.7868 10.6071 14.4866 10.8093 14.285L13.7195 11.3739C14.8937 10.1997 15.0909 8.40153 14.1994 7.00105C14.1922 6.98978 14.1848 6.9788 14.1771 6.96781L10.322 1.6106C9.10912 -0.271078 6.46719 -0.55535 4.88159 1.02998L4.29876 1.6128C4.29849 1.61335 4.29794 1.6139 4.29739 1.61418L2.21658 3.69499C-0.264684 6.17652 -0.670629 9.90528 1.04296 14.4789C2.51074 18.3966 5.44903 22.6843 9.31649 26.5518C13.2754 30.5107 17.679 33.5034 21.7159 34.9785C25.7117 36.4384 29.962 36.6183 32.9703 33.6096L34.9328 31.6475C36.5112 30.0688 36.2357 27.4441 34.378 26.2235ZM28.1685 22.7889L33.5021 27.3244C33.5265 27.3452 33.5526 27.3645 33.5798 27.3818C34.7191 28.1071 34.8916 29.7002 33.9382 30.6532L33.7927 30.7991L24.6957 23.9881L25.5831 23.101C26.2766 22.4072 27.3335 22.2817 28.1685 22.7889ZM9.1473 2.38322C9.15444 2.39448 9.16186 2.40574 9.16955 2.41645L13.023 7.77174C13.5465 8.60972 13.4254 9.67951 12.7253 10.3796L11.8653 11.2398L5.71078 2.18931L5.87585 2.02424C6.83303 1.06706 8.42468 1.24806 9.1473 2.38322ZM22.1982 33.6577C18.3497 32.2515 14.128 29.3747 10.3108 25.5575C6.58199 21.829 3.75823 17.7193 2.3594 13.9856C1.30938 11.183 0.604884 7.2952 3.21084 4.68952L4.69866 3.20142L10.8532 12.252L9.81527 13.2904C9.22476 13.8799 9.03909 14.7522 9.33379 15.5289C9.55572 16.4397 10.5769 18.3301 11.6071 19.7232C13.1233 21.7733 15.8751 24.6075 20.3748 26.4691C21.1655 26.7962 22.0672 26.6166 22.6726 26.0115L23.6913 24.9925L32.7882 31.8035L31.9761 32.6154C29.1825 35.4092 25.117 34.7242 22.1982 33.6577Z" fill="white"/>
<path d="M15.0275 25.7658C14.2848 25.1146 13.0002 23.9946 12.3237 23.2986C10.6648 21.5938 8.9243 19.5273 7.88938 18.0342C7.66828 17.7151 7.2302 17.6354 6.91105 17.8568C6.5919 18.0779 6.51252 18.516 6.73362 18.8351C8.0388 20.7182 9.95646 22.8819 11.3157 24.2788C12.0299 25.0138 13.3254 26.1438 14.1002 26.823C14.3916 27.0784 14.8358 27.0504 15.0926 26.7579C15.3485 26.4662 15.3194 26.0218 15.0275 25.7658Z" fill="white"/>
</g>
<defs>
<clipPath id="clip0_260:7348">
<rect width="36" height="36" fill="white"/>
</clipPath>
</defs>
</svg>
