<svg width="36" height="36" viewBox="0 0 36 36" fill="none" xmlns="http://www.w3.org/2000/svg">
<path d="M17.9995 0C11.3285 0 5.90137 5.42714 5.90137 12.0981C5.90137 14.6976 6.71298 17.1741 8.24854 19.261L17.4146 32.868C17.5457 33.0626 17.7649 33.1792 17.9995 33.1792C18.2341 33.1792 18.4533 33.0626 18.5843 32.868L27.7504 19.2611C29.286 17.1741 30.0976 14.6976 30.0976 12.0982C30.0976 5.42714 24.6704 0 17.9995 0ZM26.6036 18.4399C26.5948 18.452 26.5861 18.4645 26.5779 18.4774L17.9995 31.2118L9.42255 18.4794C9.41397 18.4659 9.4049 18.4528 9.39541 18.4399C8.03226 16.5938 7.31177 14.4008 7.31177 12.098C7.31177 6.20487 12.1063 1.4104 17.9995 1.4104C23.8926 1.4104 28.6872 6.20494 28.6872 12.0981C28.6872 14.4008 27.9667 16.5938 26.6036 18.4399Z" fill="white"/>
<path d="M22.9363 11.3182C22.5468 11.3182 22.2311 11.6339 22.2311 12.0234C22.2311 14.3564 20.333 16.2545 18 16.2545C15.667 16.2545 13.7689 14.3564 13.7689 12.0234C13.7689 9.69032 15.667 7.79223 18 7.79223C18.848 7.79223 19.6658 8.04198 20.3652 8.51441C20.688 8.73245 21.1263 8.64759 21.3443 8.32485C21.5624 8.00219 21.4775 7.56379 21.1548 7.34575C20.2213 6.71519 19.1304 6.38184 17.9999 6.38184C14.8892 6.38184 12.3584 8.91259 12.3584 12.0234C12.3584 15.1341 14.8892 17.6649 17.9999 17.6649C21.1107 17.6649 23.6414 15.1341 23.6414 12.0234C23.6414 11.6339 23.3257 11.3182 22.9363 11.3182Z" fill="white"/>
<path d="M26.45 34.5898H9.52548C9.13602 34.5898 8.82031 34.9055 8.82031 35.295C8.82031 35.6845 9.13602 36.0002 9.52548 36.0002H26.45C26.8395 36.0002 27.1552 35.6845 27.1552 35.295C27.1553 34.9055 26.8395 34.5898 26.45 34.5898Z" fill="white"/>
<path d="M22.3716 8.99854H22.3575C21.968 8.99854 21.6523 9.31424 21.6523 9.7037C21.6523 10.0932 21.968 10.4089 22.3575 10.4089H22.3716C22.7611 10.4089 23.0768 10.0932 23.0768 9.7037C23.0769 9.31424 22.7611 8.99854 22.3716 8.99854Z" fill="white"/>
</svg>
