<svg width="36" height="36" viewBox="0 0 36 36" fill="none" xmlns="http://www.w3.org/2000/svg">
<g clip-path="url(#clip0_260:7393)">
<path d="M31.7178 10.8044H30.4783V0.703192C30.4783 0.427637 30.3173 0.177465 30.0666 0.0632777C29.8159 -0.0509801 29.5216 -0.00815978 29.3136 0.172754L27.4516 1.79275C26.4797 2.63833 25.4295 3.42077 24.3302 4.11834C20.156 6.76757 15.3328 8.16785 10.3821 8.16785H6.9582C3.50867 8.16785 0.702148 10.9576 0.702148 14.3866C0.702148 17.8156 3.5086 20.6053 6.9582 20.6053H8.59873V35.2969C8.59873 35.6852 8.91359 36.0001 9.30186 36.0001H13.335C14.7256 36.0001 15.857 34.8687 15.857 33.4782V30.5318H16.922C18.3148 30.5318 19.4478 29.3988 19.4478 28.003C19.4478 26.6103 18.3148 25.4772 16.922 25.4772H15.857V21.1853C18.8504 21.8277 21.7174 22.9966 24.3302 24.6548C25.4296 25.3525 26.4797 26.135 27.4516 26.9804L29.3136 28.6004C29.4441 28.714 29.6087 28.7731 29.7752 28.7731C29.8739 28.7731 29.9732 28.7524 30.0665 28.7099C30.3173 28.5957 30.4782 28.3456 30.4782 28.07V17.9689H31.7178C33.6917 17.9689 35.2977 16.363 35.2977 14.3842C35.2977 12.4102 33.6918 10.8044 31.7178 10.8044ZM2.10847 14.3866C2.10847 11.733 4.28401 9.57417 6.95827 9.57417H8.5988V19.1992H6.9582C4.28401 19.1991 2.10847 17.0402 2.10847 14.3866ZM16.9221 26.8835C17.5394 26.8835 18.0416 27.3857 18.0416 28.006C18.0416 28.6233 17.5394 29.1255 16.9221 29.1255H15.857V26.8835H16.9221ZM14.4508 33.4782C14.4508 34.0933 13.9503 34.5938 13.3351 34.5938H10.0051V20.6054H10.3821C11.7518 20.6054 13.1117 20.7126 14.4508 20.9237V33.4782ZM29.072 26.5263L28.3745 25.9194C27.4463 25.1119 26.4506 24.3591 25.4102 23.6779V17.9212C25.4102 17.5329 25.0953 17.2181 24.707 17.2181C24.3188 17.2181 24.0039 17.5329 24.0039 17.9212V22.8164C19.8612 20.4462 15.1784 19.1992 10.3821 19.1992H10.0051V9.57417H10.3821C15.1785 9.57417 19.8613 8.32703 24.0039 5.95687V11.5641C24.0039 11.9524 24.3188 12.2672 24.707 12.2672C25.0953 12.2672 25.4102 11.9524 25.4102 11.5641V5.0954C26.4505 4.41429 27.4463 3.66145 28.3745 2.85377L29.072 2.24697V26.5263ZM31.7178 16.5627H30.4783V12.2106H31.7178C32.9164 12.2106 33.8915 13.1857 33.8915 14.389C33.8915 15.5876 32.9164 16.5627 31.7178 16.5627Z" fill="white"/>
<path d="M25.3563 14.4869C25.2429 14.215 24.965 14.0378 24.6699 14.0537C24.3767 14.0696 24.1207 14.2714 24.0348 14.5515C23.9487 14.8322 24.0531 15.1459 24.2886 15.3203C24.518 15.4902 24.8357 15.5034 25.0782 15.3528C25.3666 15.1739 25.4868 14.8003 25.3563 14.4869Z" fill="white"/>
</g>
<defs>
<clipPath id="clip0_260:7393">
<rect width="36" height="36" fill="white"/>
</clipPath>
</defs>
</svg>
