<svg width="164" height="164" viewBox="0 0 164 164" fill="none" xmlns="http://www.w3.org/2000/svg">
<path d="M151.188 59.5781C146.578 59.5781 142.383 62.0807 140.128 65.9251L91.2577 52.4092C93.4582 50.1074 94.8125 46.9905 94.8125 43.5625C94.8125 41.7937 93.3785 40.3594 91.6094 40.3594C89.8403 40.3594 88.4062 41.7937 88.4062 43.5625C88.4062 47.0949 85.5324 49.9688 82 49.9688C78.4676 49.9688 75.5938 47.0949 75.5938 43.5625C75.5938 40.0301 78.4676 37.1562 82 37.1562C83.7691 37.1562 85.2031 35.7219 85.2031 33.9531V25.625H91.6094C92.8227 25.625 93.9316 24.9395 94.4743 23.8543L104.084 4.63556C104.58 3.64259 104.527 2.46352 103.943 1.51924C103.36 0.574961 102.329 0 101.219 0H62.7812C61.671 0 60.64 0.574961 60.0567 1.51924C59.4731 2.4632 59.4199 3.64259 59.9164 4.63556L69.5257 23.8543C70.0684 24.9395 71.1773 25.625 72.3906 25.625H78.7969V31.1555C73.2769 32.5812 69.1875 37.6034 69.1875 43.5625C69.1875 46.9908 70.5437 50.1068 72.7446 52.4082L23.8694 65.9254C21.6102 62.0769 17.4183 59.5781 12.8125 59.5781C5.74769 59.5781 0 65.3258 0 72.3906V160.797C0 162.566 1.43404 164 3.20312 164H67.5859C69.355 164 70.7891 162.566 70.7891 160.797C70.7891 159.028 69.355 157.594 67.5859 157.594H6.40625V85.2031H157.594V157.594H96.4141C94.645 157.594 93.2109 159.028 93.2109 160.797C93.2109 162.566 94.645 164 96.4141 164H160.797C162.566 164 164 162.566 164 160.797C164 157.303 164 76.5425 164 72.3906C164 65.3258 158.252 59.5781 151.188 59.5781ZM74.3702 19.2188L67.9639 6.40625H96.0361L89.6298 19.2188H74.3702ZM19.2188 78.7969H6.40625V72.3906C6.40625 68.8582 9.28009 65.9844 12.8125 65.9844C16.3116 65.9844 19.2188 68.8387 19.2188 72.3906V78.7969ZM138.375 72.3906V78.7969H25.625C25.625 78.7969 25.617 72.1901 25.6144 72.0895L82 56.4951L138.386 72.0895C138.383 72.1901 138.375 72.29 138.375 72.3906ZM157.594 78.7969H144.781V72.3906C144.781 68.8428 147.678 65.9844 151.188 65.9844C154.72 65.9844 157.594 68.8582 157.594 72.3906V78.7969Z" fill="#414141"/>
<path d="M39.0781 101.219V141.578C39.0781 143.347 40.5122 144.781 42.2812 144.781C44.0503 144.781 45.4844 143.347 45.4844 141.578V101.219C45.4844 99.45 44.0503 98.0156 42.2812 98.0156C40.5122 98.0156 39.0781 99.45 39.0781 101.219Z" fill="#414141"/>
<path d="M19.2188 101.219V141.578C19.2188 143.347 20.6528 144.781 22.4219 144.781C24.191 144.781 25.625 143.347 25.625 141.578V101.219C25.625 99.45 24.191 98.0156 22.4219 98.0156C20.6528 98.0156 19.2188 99.45 19.2188 101.219Z" fill="#414141"/>
<path d="M144.781 141.578V101.219C144.781 99.45 143.347 98.0156 141.578 98.0156C139.809 98.0156 138.375 99.45 138.375 101.219V141.578C138.375 143.347 139.809 144.781 141.578 144.781C143.347 144.781 144.781 143.347 144.781 141.578Z" fill="#414141"/>
<path d="M124.922 141.578V101.219C124.922 99.45 123.488 98.0156 121.719 98.0156C119.95 98.0156 118.516 99.45 118.516 101.219V141.578C118.516 143.347 119.95 144.781 121.719 144.781C123.488 144.781 124.922 143.347 124.922 141.578Z" fill="#414141"/>
<path d="M105.062 141.578V101.219C105.062 99.45 103.628 98.0156 101.859 98.0156C100.09 98.0156 98.6562 99.45 98.6562 101.219V141.578C98.6562 143.347 100.09 144.781 101.859 144.781C103.628 144.781 105.062 143.347 105.062 141.578Z" fill="#414141"/>
<path d="M82 98.0156C80.2309 98.0156 78.7969 99.45 78.7969 101.219V141.578C78.7969 143.347 80.2309 144.781 82 144.781C83.7691 144.781 85.2031 143.347 85.2031 141.578V101.219C85.2031 99.45 83.7691 98.0156 82 98.0156Z" fill="#414141"/>
<path d="M58.9375 101.219V141.578C58.9375 143.347 60.3715 144.781 62.1406 144.781C63.9097 144.781 65.3438 143.347 65.3438 141.578V101.219C65.3438 99.45 63.9097 98.0156 62.1406 98.0156C60.3715 98.0156 58.9375 99.45 58.9375 101.219Z" fill="#414141"/>
<path d="M82 164C83.769 164 85.2031 162.566 85.2031 160.797C85.2031 159.028 83.769 157.594 82 157.594C80.231 157.594 78.7969 159.028 78.7969 160.797C78.7969 162.566 80.231 164 82 164Z" fill="#414141"/>
</svg>
