<svg width="13" height="13" viewBox="0 0 13 13" fill="none" xmlns="http://www.w3.org/2000/svg">
<g clip-path="url(#clip0_260:7384)">
<path d="M12.4757 7.49121C12.2694 7.20613 12.1739 6.85796 12.1742 6.50609C12.1743 6.50405 12.1743 6.502 12.1743 6.49993C12.1743 3.36614 9.63381 0.825684 6.50002 0.825684C5.81447 0.825684 5.15759 0.947697 4.5493 1.17068C4.22023 1.2913 3.85973 1.31448 3.52236 1.21945C3.22434 1.1355 2.906 1.10009 2.57621 1.12279C1.19087 1.21812 0.0756028 2.35346 0.00381507 3.74022C-0.0304576 4.40213 0.168045 5.01615 0.524325 5.50862C0.730577 5.79369 0.826164 6.14187 0.825743 6.49374C0.825743 6.49578 0.825743 6.49782 0.825743 6.4999C0.825743 9.63369 3.36617 12.1741 6.49999 12.1741C7.18557 12.1741 7.84246 12.0521 8.45071 11.8291C8.77979 11.7085 9.14028 11.6853 9.47766 11.7804C9.77567 11.8643 10.094 11.8997 10.4238 11.877C11.8091 11.7817 12.9244 10.6464 12.9962 9.25967C13.0305 8.59776 12.832 7.98371 12.4757 7.49121ZM6.70773 5.48265C7.85186 5.75472 9.5808 6.16586 9.5808 8.07031C9.5808 9.00848 9.11878 9.72415 8.2798 10.0855C7.68112 10.3433 7.00354 10.3781 6.41968 10.3781C4.62544 10.3781 3.4922 8.98293 3.44483 8.92353C3.151 8.55499 3.21147 8.01798 3.58004 7.72415C3.94851 7.43019 4.48552 7.49082 4.77942 7.85926C4.78205 7.86241 5.45975 8.64072 6.41968 8.67117C7.57561 8.70784 7.8397 8.36391 7.87385 8.07034C7.91558 7.71179 7.59662 7.44857 6.31274 7.14326C5.22451 6.88445 3.57978 6.49335 3.57978 4.73941C3.57978 4.19322 3.80192 2.41111 6.66052 2.41111C8.46553 2.41111 9.53096 3.83224 9.57545 3.89274C9.85463 4.27253 9.77311 4.80676 9.39332 5.0859C9.01519 5.36384 8.48434 5.2843 8.20409 4.90912C8.18399 4.88328 7.57412 4.20477 6.66052 4.11803C5.96924 4.05237 5.2867 4.30165 5.2867 4.66989C5.2867 5.06006 5.48271 5.19131 6.70773 5.48265Z" fill="#1FAEE9"/>
</g>
<defs>
<clipPath id="clip0_260:7384">
<rect width="13" height="13" fill="white"/>
</clipPath>
</defs>
</svg>
