<svg width="83" height="83" viewBox="0 0 83 83" fill="none" xmlns="http://www.w3.org/2000/svg">
<g clip-path="url(#clip0_260:5339)">
<path d="M33.3339 37.4361C29.8554 33.8938 25.244 31.8431 20.3044 31.6306C20.281 31.322 20.2637 30.8966 20.2637 30.3145C20.2637 27.9295 22.0774 20.6422 23.2207 16.6091L24.3907 12.4824H10.1925L9.24137 14.0148C8.86414 14.6228 0 29.1557 0 51.0645C0 61.7909 8.72667 70.5176 19.4531 70.5176C30.1796 70.5176 38.9062 61.7909 38.9062 51.0645C38.9062 45.9352 36.9272 41.0952 33.3339 37.4361ZM19.4531 64.0332C12.3022 64.0332 6.48438 58.2154 6.48438 51.0645C6.48438 34.9638 11.8074 23.0464 13.9109 18.9668H15.8772C14.9455 22.6279 13.7793 27.7273 13.7793 30.3145C13.7793 32.3674 13.9317 34.0167 14.6759 35.3933C15.3388 36.6195 16.7251 38.08 19.5689 38.0955L19.7104 38.0991C26.7195 38.235 32.4219 44.0511 32.4219 51.0645C32.4219 58.2154 26.6041 64.0332 19.4531 64.0332Z" fill="#F0F0F0"/>
<path d="M77.6542 37.4361C74.1757 33.8938 69.5643 31.8431 64.6247 31.6306C64.6013 31.322 64.584 30.8966 64.584 30.3145C64.584 27.9295 66.3977 20.6422 67.541 16.6091L68.711 12.4824H54.5128L53.5617 14.0148C53.1845 14.6228 44.3203 29.1557 44.3203 51.0645C44.3203 61.7909 53.047 70.5176 63.7734 70.5176C74.4999 70.5176 83.2266 61.7909 83.2266 51.0645C83.2266 45.9352 81.2475 41.0952 77.6542 37.4361ZM63.7734 64.0332C56.6225 64.0332 50.8047 58.2154 50.8047 51.0645C50.8047 34.9638 56.1277 23.0464 58.2312 18.9668H60.1975C59.2658 22.6279 58.0996 27.7273 58.0996 30.3145C58.0996 32.3674 58.252 34.0167 58.9962 35.3933C59.6591 36.6195 61.0455 38.08 63.8892 38.0955L64.0307 38.0991C71.0398 38.235 76.7422 44.0511 76.7422 51.0645C76.7422 58.2154 70.9244 64.0332 63.7734 64.0332Z" fill="#F0F0F0"/>
</g>
<defs>
<clipPath id="clip0_260:5339">
<rect width="83" height="83" fill="white"/>
</clipPath>
</defs>
</svg>
