<svg width="1580" height="807" viewBox="0 0 1580 807" fill="none" xmlns="http://www.w3.org/2000/svg">
<path d="M1243.47 77.7173L1372.08 249.197L428.942 249.197L428.942 77.7172L1243.47 77.7173Z" fill="#1FAEE9"/>
<path d="M481.623 77.72L568.087 77.7175L221.706 538.304L166.538 496.486L481.623 77.72Z" fill="#FE6400"/>
<path d="M471.323 729.339L557.562 729.34L211.409 266.347L156.24 308.164L471.323 729.339Z" fill="#FE6400"/>
<path d="M0.242188 77.7173H163.148V729.34H0.242188V77.7173Z" fill="#1FAEE9"/>
<path d="M320.644 77.7157L481.965 77.7186L122.611 556.758L18.0182 477.478L320.644 77.7157Z" fill="#1FAEE9"/>
<path d="M320.039 729.34L481.352 729.346L122.006 249.2L17.4131 328.48L320.039 729.34Z" fill="#1FAEE9"/>
<path d="M651.865 232.049H814.771V729.34H651.865V232.049Z" fill="#1FAEE9"/>
<path d="M977.676 232.049H1149.16V729.34H977.676V232.049Z" fill="#1FAEE9"/>
<path d="M1397.8 403.529L1320.63 506.417L1149.16 506.417L1149.16 403.529L1397.8 403.529Z" fill="#1FAEE9"/>
<path d="M1234.9 77.7173L1312.06 77.7173L1545.21 377.835C1555.2 390.691 1560.2 397.119 1559.28 404.201C1558.36 411.282 1551.9 416.227 1538.97 426.117L1512.34 446.483L1234.9 77.7173Z" fill="#FE6400"/>
<path d="M1226.33 729.336L1309.72 729.336L1550.52 424.481C1558.87 413.92 1563.04 408.639 1562.92 402.51C1562.81 396.381 1558.45 391.255 1549.73 381.003L1517.84 343.511L1226.33 729.336Z" fill="#FE6400"/>
</svg>
