<svg width="13" height="13" viewBox="0 0 13 13" fill="none" xmlns="http://www.w3.org/2000/svg">
<g clip-path="url(#clip0_260:5643)">
<path d="M11.8377 11.607C12.1299 11.607 12.3831 11.5105 12.5983 11.32L8.91524 7.63673C8.82687 7.70001 8.74122 7.76154 8.66031 7.82005C8.38468 8.02313 8.16098 8.18159 7.9892 8.29514C7.81745 8.40895 7.58893 8.52496 7.30368 8.64339C7.01823 8.76197 6.7523 8.82107 6.50561 8.82107H6.49839H6.49117C6.24446 8.82107 5.97853 8.76199 5.69311 8.64339C5.40768 8.52496 5.17917 8.40895 5.00758 8.29514C4.83582 8.18159 4.61224 8.02315 4.33647 7.82005C4.25962 7.76371 4.1744 7.7019 4.08225 7.63574L0.398438 11.32C0.613666 11.5105 0.867037 11.607 1.15923 11.607H11.8377Z" fill="white"/>
<path d="M0.732779 5.31774C0.457176 5.134 0.212774 4.92356 0 4.68652V10.2903L3.24628 7.04401C2.59684 6.59061 1.76007 6.01585 0.732779 5.31774Z" fill="white"/>
<path d="M12.2735 5.31774C11.2853 5.98654 10.4455 6.56229 9.75391 7.04531L12.9989 10.2904V4.68652C12.7908 4.91879 12.5491 5.12909 12.2735 5.31774Z" fill="white"/>
<path d="M11.8391 1.39258H1.16064C0.788103 1.39258 0.50169 1.51838 0.301047 1.76972C0.100239 2.02118 0 2.33565 0 2.71279C0 3.01743 0.133022 3.34751 0.398949 3.70312C0.664876 4.05859 0.947843 4.33781 1.24771 4.54091C1.4121 4.65705 1.90784 5.00169 2.73494 5.57471C3.18142 5.88411 3.5697 6.15379 3.90337 6.38651C4.18777 6.58467 4.43305 6.75628 4.63555 6.8987C4.6588 6.91501 4.69536 6.94116 4.74389 6.97586C4.79617 7.01341 4.86233 7.06106 4.94394 7.12C5.10111 7.23366 5.23168 7.32555 5.33567 7.39574C5.43952 7.46596 5.56534 7.54439 5.71295 7.63148C5.86044 7.71845 5.99955 7.78386 6.13012 7.82736C6.26071 7.87083 6.3816 7.89264 6.49282 7.89264H6.50004H6.50726C6.61845 7.89264 6.73937 7.87083 6.86998 7.82736C7.00052 7.78386 7.13952 7.7186 7.28713 7.63148C7.43459 7.54439 7.56025 7.46579 7.66443 7.39574C7.76842 7.32555 7.89899 7.23369 8.05618 7.12C8.13763 7.06106 8.20379 7.01338 8.25607 6.97598C8.30462 6.94114 8.34116 6.91515 8.36455 6.8987C8.5223 6.78893 8.76815 6.61802 9.09867 6.38851C9.7001 5.97064 10.5858 5.35559 11.7596 4.54091C12.1127 4.29433 12.4076 3.99678 12.6446 3.64867C12.8812 3.30056 12.9999 2.93541 12.9999 2.55334C12.9999 2.23412 12.8849 1.96097 12.6553 1.73347C12.4255 1.50625 12.1534 1.39258 11.8391 1.39258Z" fill="white"/>
</g>
<defs>
<clipPath id="clip0_260:5643">
<rect width="13" height="13" fill="white"/>
</clipPath>
</defs>
</svg>
