<svg width="83" height="83" viewBox="0 0 83 83" fill="none" xmlns="http://www.w3.org/2000/svg">
<g clip-path="url(#clip0_260:6507)">
<path d="M33.3339 37.4361C29.8554 33.8938 25.244 31.8431 20.3044 31.6306C20.281 31.322 20.2637 30.8966 20.2637 30.3145C20.2637 27.9295 22.0774 20.6422 23.2207 16.6091L24.3907 12.4824H10.1925L9.24137 14.0148C8.86414 14.6228 0 29.1557 0 51.0645C0 61.7909 8.72667 70.5176 19.4531 70.5176C30.1796 70.5176 38.9062 61.7909 38.9062 51.0645C38.9062 45.9352 36.9272 41.0952 33.3339 37.4361ZM19.4531 64.0332C12.3022 64.0332 6.48438 58.2154 6.48438 51.0645C6.48438 34.9638 11.8074 23.0464 13.9109 18.9668H15.8772C14.9455 22.6279 13.7793 27.7273 13.7793 30.3145C13.7793 32.3674 13.9317 34.0167 14.6759 35.3933C15.3388 36.6195 16.7251 38.08 19.5689 38.0955L19.7104 38.0991C26.7195 38.235 32.4219 44.0511 32.4219 51.0645C32.4219 58.2154 26.6041 64.0332 19.4531 64.0332Z" fill="#EAEAEA"/>
<path d="M77.6532 37.4361C74.1747 33.8938 69.5633 31.8431 64.6237 31.6306C64.6004 31.322 64.583 30.8966 64.583 30.3145C64.583 27.9295 66.3967 20.6422 67.54 16.6091L68.71 12.4824H54.5118L53.5607 14.0148C53.1835 14.6228 44.3193 29.1557 44.3193 51.0645C44.3193 61.7909 53.046 70.5176 63.7725 70.5176C74.4989 70.5176 83.2256 61.7909 83.2256 51.0645C83.2256 45.9352 81.2466 41.0952 77.6532 37.4361ZM63.7725 64.0332C56.6215 64.0332 50.8037 58.2154 50.8037 51.0645C50.8037 34.9638 56.1267 23.0464 58.2303 18.9668H60.1965C59.2648 22.6279 58.0986 27.7273 58.0986 30.3145C58.0986 32.3674 58.251 34.0167 58.9953 35.3933C59.6581 36.6195 61.0445 38.08 63.8882 38.0955L64.0297 38.0991C71.0389 38.235 76.7412 44.0511 76.7412 51.0645C76.7412 58.2154 70.9234 64.0332 63.7725 64.0332Z" fill="#EAEAEA"/>
</g>
<defs>
<clipPath id="clip0_260:6507">
<rect width="83" height="83" fill="white"/>
</clipPath>
</defs>
</svg>
