<svg width="14" height="13" viewBox="0 0 14 13" fill="none" xmlns="http://www.w3.org/2000/svg">
<g clip-path="url(#clip0)">
<path d="M13.9977 13V12.9994H14.0012V8.23166C14.0012 5.89925 13.4605 4.10254 10.524 4.10254C9.11229 4.10254 8.16496 4.82187 7.77821 5.50383H7.73738V4.32029H4.95312V12.9994H7.85229V8.70183C7.85229 7.57029 8.08329 6.47612 9.59238 6.47612C11.0793 6.47612 11.1015 7.76746 11.1015 8.77441V13H13.9977Z" fill="white"/>
<path d="M0.230469 4.3208H3.13314V12.9999H0.230469V4.3208Z" fill="white"/>
<path d="M1.68117 0C0.753083 0 0 0.699292 0 1.56108C0 2.42288 0.753083 3.13679 1.68117 3.13679C2.60925 3.13679 3.36233 2.42288 3.36233 1.56108C3.36175 0.699292 2.60867 0 1.68117 0V0Z" fill="white"/>
</g>
<defs>
<clipPath id="clip0">
<rect width="14" height="13" fill="white"/>
</clipPath>
</defs>
</svg>
