<svg width="14" height="13" viewBox="0 0 14 13" fill="none" xmlns="http://www.w3.org/2000/svg">
<path d="M10.4989 0.00270487L8.68339 0C6.64377 0 5.32568 1.25573 5.32568 3.19932V4.67442H3.50031C3.34257 4.67442 3.21484 4.79316 3.21484 4.93963V7.07688C3.21484 7.22335 3.34272 7.34196 3.50031 7.34196H5.32568V12.7349C5.32568 12.8814 5.45341 13 5.61114 13H7.99274C8.15047 13 8.2782 12.8813 8.2782 12.7349V7.34196H10.4125C10.5702 7.34196 10.698 7.22335 10.698 7.07688L10.6988 4.93963C10.6988 4.8693 10.6687 4.80195 10.6152 4.75218C10.5618 4.70241 10.4889 4.67442 10.4132 4.67442H8.2782V3.42396C8.2782 2.82294 8.43244 2.51783 9.27558 2.51783L10.4986 2.51742C10.6561 2.51742 10.7839 2.39868 10.7839 2.25234V0.267782C10.7839 0.121584 10.6563 0.00297535 10.4989 0.00270487Z" fill="white" />
</svg>
