<svg width="50" height="30" viewBox="0 0 50 30" fill="none" xmlns="http://www.w3.org/2000/svg">
<path d="M49.7125 27.7926L42.3394 22.2628C41.769 21.835 41.0183 21.7673 40.3806 22.0862C40.3168 22.1181 40.256 22.154 40.1972 22.1921L34.6394 18.0238V16.7977H38.7638C39.8705 16.7977 40.8058 16.0053 40.9877 14.9137L42.9778 2.97317H43.1371C43.534 2.97317 43.8557 2.65144 43.8557 2.2546C43.8557 1.85775 43.534 1.53602 43.1371 1.53602H34.6888C34.1012 1.53602 33.5526 1.70513 33.0881 1.99639C32.9595 0.874456 32.0046 0 30.8488 0H6.00845C4.99603 0 4.04406 0.394258 3.32798 1.11024L1.15578 3.28254C0.875156 3.56317 0.875156 4.01817 1.15578 4.2987L3.45982 6.60273C3.60008 6.743 3.78404 6.81323 3.9679 6.81323C4.15175 6.81323 4.33571 6.74309 4.47597 6.60273L6.56961 4.5091H16.3058V6.14399H10.1121C9.29233 6.14399 8.6255 6.81083 8.6255 7.63058V15.3602H8.57606C7.75631 15.3602 7.08947 16.0271 7.08947 16.8468V22.2499C6.1582 22.9413 5.55345 24.0487 5.55345 25.295C5.55345 27.3852 7.25398 29.0857 9.34407 29.0857C11.1885 29.0857 12.7287 27.7613 13.0655 26.0136H26.0242C26.8749 27.8266 28.7171 29.0857 30.8487 29.0857C33.4071 29.0857 35.5494 27.2724 36.0595 24.8637L39.3464 26.5071V27.2151C39.3464 28.2465 40.1855 29.0856 41.217 29.0856H49.2813C49.5906 29.0856 49.8652 28.8877 49.963 28.5943C50.0608 28.3013 49.9599 27.9782 49.7125 27.7926ZM39.9683 12.2884H36.2249C36.1976 12.2884 36.1755 12.2662 36.1755 12.2389V6.04531H41.0089L39.9683 12.2884ZM33.1034 4.55873C33.1034 3.68446 33.8146 2.97317 34.6888 2.97317H41.5208L41.2483 4.60816H35.4569C35.0601 4.60816 34.7384 4.92989 34.7384 5.32674V12.2389C34.7384 13.0587 35.4052 13.7255 36.2249 13.7255H39.7288L39.5701 14.6774C39.5042 15.0732 39.1651 15.3604 38.7638 15.3604H33.1034V4.55873ZM6.27202 3.07214C6.08146 3.07214 5.89865 3.14783 5.76395 3.28264L3.96799 5.07859L2.68012 3.79071L4.34433 2.1265C4.78889 1.68194 5.37994 1.43715 6.00855 1.43715H16.3059V3.07214H6.27202ZM9.34407 27.6489C8.04633 27.6489 6.9906 26.5931 6.9906 25.2953C6.9906 23.9976 8.04642 22.9418 9.34407 22.9418C10.6417 22.9418 11.6975 23.9977 11.6975 25.2953C11.6975 26.593 10.6418 27.6489 9.34407 27.6489ZM25.5849 24.5767H13.0656C12.7287 22.8292 11.1886 21.5047 9.34416 21.5047C9.06344 21.5047 8.79019 21.5363 8.52672 21.5945V16.8471C8.52672 16.8198 8.54885 16.7977 8.57615 16.7977H10.8802C11.277 16.7977 11.5988 16.4759 11.5988 16.0791C11.5988 15.6822 11.277 15.3605 10.8802 15.3605H10.0627V7.63087C10.0627 7.60356 10.0849 7.58143 10.1122 7.58143H27.7768C28.1737 7.58143 28.4954 7.2597 28.4954 6.86285C28.4954 6.46601 28.1737 6.14428 27.7768 6.14428H17.7429V1.43715H30.8488C31.2996 1.43715 31.6662 1.80391 31.6662 2.2546V4.55873V6.14419H30.8484C30.4515 6.14419 30.1298 6.46591 30.1298 6.86276C30.1298 7.2596 30.4515 7.58133 30.8484 7.58133H31.6662V15.3604H13.9524C13.5556 15.3604 13.2339 15.6821 13.2339 16.079C13.2339 16.4758 13.5556 16.7976 13.9524 16.7976H33.2022V18.9823C32.492 18.631 31.6932 18.4326 30.8488 18.4326C27.9116 18.4326 25.522 20.8221 25.522 23.7593C25.522 24.0372 25.5436 24.3102 25.5849 24.5767ZM30.8488 27.6489C28.7041 27.6489 26.9592 25.904 26.9592 23.7593C26.9592 21.6146 28.704 19.8697 30.8488 19.8697C32.9936 19.8697 34.7384 21.6145 34.7384 23.7593C34.7384 25.9041 32.9935 27.6489 30.8488 27.6489ZM39.3465 23.7593V24.9007L36.1547 23.3049C36.0464 22.0305 35.4884 20.8827 34.6394 20.0217V19.8203L39.3851 23.3795C39.3599 23.5027 39.3465 23.6298 39.3465 23.7593ZM41.2171 27.6489C40.9781 27.6489 40.7837 27.4544 40.7837 27.2154V23.7593C40.7837 23.5176 40.9512 23.4077 41.0233 23.3716C41.0619 23.3523 41.1339 23.3238 41.2222 23.3238C41.2986 23.3238 41.3875 23.3452 41.4772 23.4126L47.1256 27.6489H41.2171Z" fill="white"/>
<path d="M32.3844 23.0407C31.9875 23.0407 31.6658 23.3624 31.6658 23.7593C31.6658 24.21 31.299 24.5767 30.8483 24.5767C30.3977 24.5767 30.0309 24.2099 30.0309 23.7593C30.0309 23.4683 30.1877 23.1968 30.4401 23.0507C30.7836 22.852 30.901 22.4125 30.7023 22.0689C30.5036 21.7253 30.064 21.6079 29.7205 21.8067C29.0255 22.2087 28.5938 22.9568 28.5938 23.7592C28.5938 25.0024 29.6052 26.0138 30.8483 26.0138C32.0915 26.0138 33.1029 25.0023 33.1029 23.7592C33.1029 23.3624 32.7812 23.0407 32.3844 23.0407Z" fill="white"/>
<path d="M9.35131 24.5771H9.34365C8.9468 24.5771 8.62891 24.8989 8.62891 25.2957C8.62891 25.6926 8.95447 26.0143 9.35131 26.0143C9.74816 26.0143 10.0699 25.6926 10.0699 25.2957C10.0699 24.8989 9.74816 24.5771 9.35131 24.5771Z" fill="white"/>
<path d="M23.1692 21.5049H13.9529C13.5561 21.5049 13.2344 21.8266 13.2344 22.2235C13.2344 22.6203 13.5561 22.942 13.9529 22.942H23.1692C23.566 22.942 23.8878 22.6203 23.8878 22.2235C23.8878 21.8266 23.566 21.5049 23.1692 21.5049Z" fill="white"/>
<path d="M17.024 12.2881H12.4158C12.019 12.2881 11.6973 12.6098 11.6973 13.0067C11.6973 13.4035 12.019 13.7252 12.4158 13.7252H17.024C17.4208 13.7252 17.7426 13.4035 17.7426 13.0067C17.7426 12.6098 17.4208 12.2881 17.024 12.2881Z" fill="white"/>
<path d="M17.024 9.21582H12.4158C12.019 9.21582 11.6973 9.53755 11.6973 9.93439C11.6973 10.3312 12.019 10.653 12.4158 10.653H17.024C17.4208 10.653 17.7426 10.3312 17.7426 9.93439C17.7426 9.53755 17.4208 9.21582 17.024 9.21582Z" fill="white"/>
</svg>
