<svg width="61" height="61" viewBox="0 0 61 61" fill="none" xmlns="http://www.w3.org/2000/svg">
<path d="M21.6179 20.7283L21.3791 20.6963L21.1659 20.8025L10.2368 26.267L9.80273 26.4841V43.8747L10.2758 44.0777L15.5991 46.3588L21.3955 48.8428L56.642 44.838V25.5043L21.6179 20.7283ZM14.4867 44.1839L11.364 42.8458V27.449L14.4867 25.8876V44.1839ZM20.7319 46.8599L16.048 44.8529V25.107L20.7319 22.765V46.8599ZM55.0807 43.4438L22.2932 47.1699V22.3958L55.0807 26.8674V43.4438Z" fill="white"/>
<path d="M12.9271 31.6504C12.496 31.6504 12.1465 31.9999 12.1465 32.431V37.8956C12.1465 38.3267 12.496 38.6763 12.9271 38.6763C13.3583 38.6763 13.7078 38.3267 13.7078 37.8956V32.431C13.7078 31.9999 13.3583 31.6504 12.9271 31.6504Z" fill="white"/>
<path d="M18.39 31.6504C17.9589 31.6504 17.6094 31.9999 17.6094 32.431V38.6763C17.6094 39.1074 17.9589 39.4569 18.39 39.4569C18.8211 39.4569 19.1707 39.1074 19.1707 38.6763V32.431C19.1707 31.9999 18.8211 31.6504 18.39 31.6504Z" fill="white"/>
<path d="M52.8256 27.7524L24.722 24.6298C24.2935 24.5824 23.9077 24.8913 23.8602 25.3198C23.8571 25.3483 23.8555 25.377 23.8555 25.4058V44.1415C23.8555 44.3599 23.9469 44.5682 24.1076 44.7161C24.2517 44.8486 24.4404 44.9222 24.6361 44.9222C24.6577 44.9233 24.6794 44.9233 24.7009 44.9222L52.8045 42.5802C53.2101 42.5464 53.5217 42.2065 53.5204 41.7995V28.5284C53.5204 28.1305 53.2211 27.7962 52.8256 27.7524ZM28.5394 43.033L25.4168 43.2929V26.2778L28.5394 26.6252V43.033ZM33.2233 42.6426L30.1007 42.9026V26.7985L33.2233 27.1451V42.6426ZM37.9073 42.2523L34.7846 42.5123V27.3192L37.9073 27.6658V42.2523ZM42.5912 41.862L39.4686 42.1219V27.836L42.5912 28.1833V41.862ZM47.2751 41.4717L44.1525 41.7316V28.3567L47.2751 28.704V41.4717ZM51.959 41.0813L48.8364 41.3413V28.8805L51.959 29.2279V41.0813Z" fill="white"/>
</svg>
