<svg width="40" height="40" viewBox="0 0 40 40" fill="none" xmlns="http://www.w3.org/2000/svg">
<path d="M7.40188 23.1394C6.71305 23.548 6.25 24.2989 6.25 25.1562C6.25 26.4486 7.30141 27.5 8.59375 27.5C9.61219 27.5 10.4806 26.8468 10.8031 25.9375H16.875C18.1673 25.9375 19.2188 26.9889 19.2188 28.2812C19.2188 29.5736 18.1673 30.625 16.875 30.625H7.5C5.34609 30.625 3.59375 32.3773 3.59375 34.5312C3.59375 36.6852 5.34609 38.4375 7.5 38.4375H15.3125C15.744 38.4375 16.0938 38.0877 16.0938 37.6562C16.0938 37.2248 15.744 36.875 15.3125 36.875H7.5C6.20766 36.875 5.15625 35.8236 5.15625 34.5312C5.15625 33.2389 6.20766 32.1875 7.5 32.1875H16.875C19.0289 32.1875 20.7812 30.4352 20.7812 28.2812C20.7812 26.1273 19.0289 24.375 16.875 24.375H10.8031C10.6184 23.8541 10.2545 23.4174 9.78562 23.1394L15.7527 13.3491C16.6913 11.9381 17.1875 10.2941 17.1875 8.59375C17.1875 3.85516 13.3323 0 8.59375 0C3.85516 0 0 3.85516 0 8.59375C0 10.2941 0.496172 11.9381 1.43484 13.3491L7.40188 23.1394ZM8.59375 25.9375C8.16297 25.9375 7.8125 25.587 7.8125 25.1562C7.8125 24.7255 8.16297 24.375 8.59375 24.375C9.02453 24.375 9.375 24.7255 9.375 25.1562C9.375 25.587 9.02453 25.9375 8.59375 25.9375ZM8.59375 1.5625C12.4708 1.5625 15.625 4.71672 15.625 8.59375C15.625 9.98969 15.2166 11.3387 14.4441 12.4949C14.4381 12.5039 14.4323 12.513 14.4266 12.5223L8.59375 22.0926C8.59375 22.0926 2.74938 12.5039 2.74336 12.4949C1.97086 11.3387 1.5625 9.98969 1.5625 8.59375C1.5625 4.71672 4.71672 1.5625 8.59375 1.5625Z" fill="white"/>
<path d="M8.59375 12.5C10.7477 12.5 12.5 10.7477 12.5 8.59375C12.5 6.43984 10.7477 4.6875 8.59375 4.6875C6.43984 4.6875 4.6875 6.43984 4.6875 8.59375C4.6875 10.7477 6.43984 12.5 8.59375 12.5ZM8.59375 6.25C9.88609 6.25 10.9375 7.30141 10.9375 8.59375C10.9375 9.88609 9.88609 10.9375 8.59375 10.9375C7.30141 10.9375 6.25 9.88609 6.25 8.59375C6.25 7.30141 7.30141 6.25 8.59375 6.25Z" fill="white"/>
<path d="M31.4062 12.9688C26.6677 12.9688 22.8125 16.8239 22.8125 21.5625C22.8125 23.2655 23.3102 24.9121 24.2519 26.3245L30.1966 35.6495C29.7363 35.928 29.3794 36.3605 29.197 36.875H22.3438C21.9123 36.875 21.5625 37.2248 21.5625 37.6562C21.5625 38.0877 21.9123 38.4375 22.3438 38.4375H29.1969C29.5194 39.3468 30.3877 40 31.4062 40C32.6986 40 33.75 38.9486 33.75 37.6562C33.75 36.8062 33.2951 36.0605 32.6159 35.6495L38.5607 26.3245C39.5023 24.9121 40 23.2655 40 21.5625C40 16.8239 36.1448 12.9688 31.4062 12.9688ZM31.4062 38.4375C30.9755 38.4375 30.625 38.087 30.625 37.6562C30.625 37.2255 30.9755 36.875 31.4062 36.875C31.837 36.875 32.1875 37.2255 32.1875 37.6562C32.1875 38.087 31.837 38.4375 31.4062 38.4375ZM37.2566 25.4637C37.2536 25.4684 31.4062 34.6404 31.4062 34.6404C31.4062 34.6404 25.5589 25.4683 25.5559 25.4637C24.7834 24.3074 24.375 22.9584 24.375 21.5625C24.375 17.6855 27.5292 14.5312 31.4062 14.5312C35.2833 14.5312 38.4375 17.6855 38.4375 21.5625C38.4375 22.9584 38.0291 24.3074 37.2566 25.4637Z" fill="white"/>
<path d="M31.4062 17.6562C29.2523 17.6562 27.5 19.4086 27.5 21.5625C27.5 23.7164 29.2523 25.4688 31.4062 25.4688C33.5602 25.4688 35.3125 23.7164 35.3125 21.5625C35.3125 19.4086 33.5602 17.6562 31.4062 17.6562ZM31.4062 23.9062C30.1139 23.9062 29.0625 22.8548 29.0625 21.5625C29.0625 20.2702 30.1139 19.2188 31.4062 19.2188C32.6986 19.2188 33.75 20.2702 33.75 21.5625C33.75 22.8548 32.6986 23.9062 31.4062 23.9062Z" fill="white"/>
<path d="M18.8281 38.4375C19.2596 38.4375 19.6094 38.0877 19.6094 37.6562C19.6094 37.2248 19.2596 36.875 18.8281 36.875C18.3967 36.875 18.0469 37.2248 18.0469 37.6562C18.0469 38.0877 18.3967 38.4375 18.8281 38.4375Z" fill="white"/>
</svg>
