<svg width="25" height="25" viewBox="0 0 25 25" fill="none" xmlns="http://www.w3.org/2000/svg">
<path d="M14.1504 9.77539H11.7432V7.36816C11.7432 6.81641 11.2988 6.37207 10.7471 6.37207C10.1953 6.37207 9.75098 6.81641 9.75098 7.36816V9.77539H7.34375C6.79199 9.77539 6.34766 10.2197 6.34766 10.7715C6.34766 11.3232 6.79199 11.7676 7.34375 11.7676H9.75098V14.1748C9.75098 14.7266 10.1953 15.1709 10.7471 15.1709C11.2988 15.1709 11.7432 14.7266 11.7432 14.1748V11.7676H14.1504C14.7021 11.7676 15.1465 11.3232 15.1465 10.7715C15.1465 10.2197 14.6973 9.77539 14.1504 9.77539Z" fill="white"/>
<path d="M10.752 18.9795C6.21582 18.9795 2.53906 15.3076 2.53906 10.7715C2.53906 6.23535 6.21582 2.56348 10.752 2.56348C15.2881 2.56348 18.96 6.24023 18.96 10.7715C18.96 15.3027 15.2832 18.9795 10.752 18.9795ZM24.1699 22.7881L18.6377 17.2559C20.0879 15.4932 20.9619 13.2324 20.9619 10.7715C20.9619 5.13184 16.3916 0.556641 10.7471 0.556641C5.10254 0.556641 0.537109 5.13184 0.537109 10.7715C0.537109 16.4111 5.10742 20.9863 10.752 20.9863C13.2129 20.9863 15.4688 20.1172 17.2314 18.667L22.7637 24.1992C23.0176 24.458 23.7939 24.585 24.1748 24.1992C24.5605 23.8086 24.5605 23.1787 24.1699 22.7881Z" fill="white"/>
</svg>
